<?xml version="1.0" encoding="utf-8"?>
<!-- Generator: Adobe Illustrator 16.0.0, SVG Export Plug-In . SVG Version: 6.00 Build 0)  -->
<!DOCTYPE svg PUBLIC "-//W3C//DTD SVG 1.1//EN" "http://www.w3.org/Graphics/SVG/1.1/DTD/svg11.dtd">
<svg version="1.1" id="Layer_1" xmlns="http://www.w3.org/2000/svg" xmlns:xlink="http://www.w3.org/1999/xlink" x="0px" y="0px"
	 width="91.498px" height="65.517px" viewBox="0 0 91.498 65.517" enable-background="new 0 0 91.498 65.517" xml:space="preserve">
<path fill="#A7A9AC" d="M86.736,11.104c0,3.237-2.625,5.862-5.862,5.862H10.529c-3.238,0-5.862-2.625-5.862-5.862l0,0
	c0-3.238,2.625-5.862,5.862-5.862h70.345C84.111,5.242,86.736,7.866,86.736,11.104L86.736,11.104z"/>
<path fill="#A7A9AC" d="M86.736,32.604c0,3.237-2.625,5.861-5.862,5.861H10.529c-3.238,0-5.862-2.624-5.862-5.861l0,0
	c0-3.238,2.625-5.862,5.862-5.862h70.345C84.111,26.742,86.736,29.366,86.736,32.604L86.736,32.604z"/>
<path fill="#A7A9AC" d="M86.736,54.104c0,3.237-2.625,5.861-5.862,5.861H10.529c-3.238,0-5.862-2.624-5.862-5.861l0,0
	c0-3.238,2.625-5.862,5.862-5.862h70.345C84.111,48.242,86.736,50.866,86.736,54.104L86.736,54.104z"/>
</svg>
