<?xml version="1.0" encoding="utf-8"?>
<!-- Generator: Adobe Illustrator 16.0.0, SVG Export Plug-In . SVG Version: 6.00 Build 0)  -->
<!DOCTYPE svg PUBLIC "-//W3C//DTD SVG 1.1//EN" "http://www.w3.org/Graphics/SVG/1.1/DTD/svg11.dtd">
<svg version="1.1" id="Layer_1" xmlns="http://www.w3.org/2000/svg" xmlns:xlink="http://www.w3.org/1999/xlink" x="0px" y="0px"
	 width="376px" height="231px" viewBox="0 0 376 231" enable-background="new 0 0 376 231" xml:space="preserve">
<g>
	<path d="M311.422,109.088c-5.559,0.436-11.059,0.667-16.561,0.667c-1.524,0-3.271-0.036-5.239-0.107v-6.834
		c5.586,0.267,10.76,0.398,15.517,0.398l9.322-0.232c2.317-4.313,3.476-7.989,3.476-11.032c0-2.865-2.549-4.456-7.644-4.745
		l-1.768-0.087v-3.039h21.626c-1.245,5.645-3.909,11.697-7.96,18.122c11.637-2.026,20.149-4.979,25.506-8.831
		c8.771-6.135,13.142-13.75,13.142-22.812c0-4.69-1.708-8.482-5.122-11.377c-3.418-2.865-7.963-4.313-13.608-4.313
		c-15.201,0-32.693,9.109-52.486,27.338v-4.161c7.915-7.243,15.22-13.042,21.915-17.387c12.796-8.308,25.156-12.478,37.027-12.478
		c6.196,0,11.29,1.677,15.256,5.038c3.967,3.387,5.936,7.671,5.936,12.941c0,9.379-4.806,18.035-14.445,25.909
		c-9.641,7.905-21.974,13.29-36.941,16.155c-5.615,8.311-13.837,18.615-24.722,30.89c-1.351,1.523-2.693,3.021-4.025,4.493v-4.897
		c1.562-1.814,3.125-3.677,4.689-5.589C301.752,124.059,307.454,116.037,311.422,109.088z M289.622,109.648
		c-5.101-0.185-11.691-0.606-19.773-1.254l-2.026-0.174c2.808,11.668,4.227,26.951,4.227,45.887v2.98
		c5.853-5.441,11.706-11.568,17.573-18.382v4.897c-9.41,10.388-18.375,19.488-26.896,27.324l0.087-8.076
		c0-16.068-1.1-31.789-3.301-47.161l-0.26-1.679l-2.81,3.386c-1.358,1.564-3.877,4.546-7.555,8.889
		c-5.992,7.093-10.189,12.13-12.622,15.198l-21.045,26.634l-1.594,1.854c0-16.503-0.927-35.493-2.722-56.975
		c-0.725-9.062-1.478-14.736-2.2-17.081c-0.753-2.345-2.114-3.531-4.169-3.531c-1.305,0-3.358,0.751-6.196,2.286l-1.507-2.808
		c0.785-0.522,1.246-0.782,1.333-0.839l8.917-5.008c1.824-1.014,4.574-2.723,8.311-5.096l1.969-1.16
		c3.329,17.747,4.978,42.298,4.978,73.681c2.607-2.981,7.527-9.036,14.767-18.067c4.979-6.339,11.841-14.503,20.611-24.519
		l0.752-0.927l-0.318-1.708c-15.227,0-23.218,6.34-23.999,19.021c-1.478-1.245-2.23-2.808-2.23-4.691
		c0-4.284,2.636-8.684,7.905-13.23c5.239-4.514,10.797-7.15,16.615-7.875c-4.805-14.764-12.881-26.314-24.2-34.651
		c-11.351-8.338-24.667-12.507-40.01-12.507c-1.524,0-3.026,0.038-4.501,0.115v0.001c-108.79,7.683-153.159,136.599-63.831,121.233
		l0.264,1.821C24.061,207.112,66.349,66.232,183.623,50.5c1.433-0.212,2.885-0.392,4.357-0.54h0.001
		c3.378-0.34,6.86-0.509,10.446-0.509c17.72,0,32.368,4.431,43.976,13.316c11.64,8.887,19.657,21.772,24.058,38.677
		c8.228-8.999,15.947-16.801,23.161-23.402v4.161c-6.066,5.586-12.348,12.029-18.847,19.328c6.729,0.578,13.013,1.003,18.847,1.282
		V109.648z"/>
	<path d="M165.2,120.277l-34.014-0.211c4.823,2.19,8.737,5.382,11.742,9.598c3.005,4.193,4.496,8.597,4.496,13.186
		c0,7.151-4.12,16.537-9.453,25.201c-10.819-12.809-26.628-30.001-42.793-42.935v-6.968c15.444,10.195,29.631,23.74,41.218,35.626
		l2.096,2.12c2.284-3.866,4.519-7.944,4.519-12.23c0-6.638-2.888-12.136-8.666-16.493c-5.776-4.38-14.464-6.802-23.899-7.314
		c1.141-1.957,2.027-4.146,2.678-6.546l53.987-0.209l5.73-17.588c10.662-32.724,42.922-35.865,61.129-22.717l-7.708,16.721
		l-2.744-0.568c0.814-2.912,1.093-4.973,1.234-6.15c1.075-8.885-8.026-14.522-15.796-14.296
		c-9.991,0.291-19.659,8.909-22.487,18.344c-1.352,2.798-3.191,8.062-5.521,15.795l-2.586,8.83l-0.489,1.63h26.068l-4.916,16.447
		h-2.517c0.234-0.724,0.396-1.282,0.491-1.632c0.488-1.631,0.744-3.005,0.744-4.101c0-1.537-0.653-2.517-1.979-2.935
		c-1.328-0.396-4.497-0.604-9.504-0.604h-10.506l-0.956,2.934c-4.553,14.566-13.045,37.107-20.902,48.742
		c-12.686,18.786-35.35,29.218-58.717,30.938v-4.441c21.795,0.121,41.404-11.669,53.785-35.384
		C154.088,153.25,162.172,133.629,165.2,120.277z M95.178,125.116c-10.969-8.777-22.101-15.593-31.949-17.747
		c-46.147-10.09-47.972,47.211-18.224,71.053c16.553,13.266,33.967,19.938,50.172,20.027v4.441
		c-35.183,2.591-71.962-14.577-78.691-52.81c-4.601-26.141,15.88-52.306,45.416-46.596c11.396,2.204,22.634,7.638,33.275,14.662
		V125.116z"/>
	<path d="M200.262,153.286c0.185,0.378,0.281,0.708,0.281,1.005c0,1.293-0.896,2.779-2.684,4.457
		c-2.601,2.457-4.824,3.688-6.646,3.688c-0.126,0-0.247-0.007-0.362-0.018v-9.282c1.209-2.099,2.732-3.832,4.572-5.21
		c2.339-1.748,4.424-2.621,6.255-2.621c1.059,0,1.588,0.392,1.588,1.169c0,0.509-0.254,1.121-0.763,1.843
		c-0.517,0.716-1.149,1.371-1.92,1.942c-0.709,0.529-1.616,1.01-2.711,1.451c-1.094,0.447-1.939,0.668-2.531,0.668
		c-0.634,0-1.066-0.352-1.307-1.047c0.563,0.076,1.01,0.117,1.348,0.117c1.348,0,2.587-0.387,3.722-1.156
		c1.136-0.771,1.706-1.609,1.706-2.512c0-0.64-0.42-0.963-1.252-0.963c-1.492,0-3.014,0.916-4.575,2.739
		c-1.101,1.293-2.01,2.799-2.724,4.513c-0.709,1.721-1.066,3.255-1.066,4.596c0,1.382,0.577,2.077,1.732,2.077
		c1.26,0,2.573-0.695,3.943-2.084C198.231,157.27,199.359,155.474,200.262,153.286L200.262,153.286z M190.852,140.753v-5.215
		c0.74-0.328,1.406-0.647,1.998-0.96c-0.055,0.888-0.682,2.856-1.893,5.911L190.852,140.753z M190.852,162.419
		c-1.334-0.132-1.997-1.019-1.997-2.666c0-2.017,0.611-4.129,1.843-6.342c0.051-0.092,0.103-0.184,0.154-0.274V162.419
		L190.852,162.419z M190.852,135.538c-0.988,0.438-2.11,0.892-3.361,1.359l-0.324,0.125l0.242,0.604
		c0.433-0.172,0.816-0.262,1.168-0.262c0.606,0,0.895,0.289,0.867,0.866c-0.014,0.4-0.232,1.156-0.668,2.258l-1.45,3.805
		l-0.544,1.391c-4.431,0.757-8.324,2.964-11.669,6.631c-1.197,1.321-2.153,2.705-2.868,4.156c-0.723,1.452-1.08,2.73-1.08,3.853
		c0,1.272,0.509,1.912,1.534,1.912c1.342,0,3.212-1.018,5.62-3.062c1.609-1.389,2.896-2.82,3.861-4.3
		c0.955-1.472,1.438-2.772,1.438-3.887c0-0.564-0.111-1.094-0.338-1.596c-0.564,1.897-1.294,3.611-2.18,5.146
		c-0.937,1.61-2.023,2.985-3.256,4.114c-1.225,1.129-2.249,1.692-3.068,1.692c-0.832,0-1.251-0.571-1.251-1.713
		c0-2.49,1.183-4.906,3.548-7.259c1.261-1.238,2.732-2.242,4.411-3.014c1.679-0.777,3.239-1.161,4.692-1.161l-0.199,0.445
		l-2.258,5.884c-0.254,0.646-0.536,1.334-0.846,2.078c-0.982,2.42-1.685,4.438-2.118,6.046l-0.159,0.668
		c2.608-0.743,4.637-1.615,6.09-2.621l-0.386-0.489c-0.097,0.057-0.159,0.097-0.198,0.125c-0.861,0.522-1.481,0.783-1.859,0.783
		c-0.364,0-0.543-0.185-0.543-0.564c0-0.433,0.604-2.181,1.816-5.262l2.6-6.612l0.139-0.357c0.729,0.04,1.369,0.15,1.932,0.336
		c-0.061-0.99-0.501-1.65-1.307-1.973l0.585-1.452l1.388-3.479V135.538z"/>
</g>
</svg>
