<?xml version="1.0" encoding="utf-8"?>
<!-- Generator: Adobe Illustrator 16.0.0, SVG Export Plug-In . SVG Version: 6.00 Build 0)  -->
<!DOCTYPE svg PUBLIC "-//W3C//DTD SVG 1.1//EN" "http://www.w3.org/Graphics/SVG/1.1/DTD/svg11.dtd">
<svg version="1.1" id="Layer_1" xmlns="http://www.w3.org/2000/svg" xmlns:xlink="http://www.w3.org/1999/xlink" x="0px" y="0px"
	 width="49px" viewBox="0 0 439 106" enable-background="new 0 0 439 106" xml:space="preserve">
<g>
	<path d="M419.463,76.338v-1.354c1.2-0.312,2.439-1.116,3.717-2.413c1.674-1.709,3.061-3.915,4.169-6.604
		c0.228,0.465,0.347,0.871,0.347,1.235c0,1.59-1.1,3.415-3.298,5.479C422.604,74.374,420.958,75.593,419.463,76.338L419.463,76.338z
		 M419.463,63.249v-2.217c0.611-0.591,1.258-1.142,1.941-1.653c2.874-2.146,5.436-3.22,7.686-3.22c1.303,0,1.953,0.48,1.953,1.438
		c0,0.625-0.313,1.378-0.938,2.266c-0.634,0.879-1.411,1.683-2.358,2.385c-0.871,0.651-1.987,1.243-3.332,1.783
		c-1.344,0.551-2.385,0.821-3.111,0.821c-0.779,0-1.312-0.431-1.606-1.287c0.693,0.095,1.242,0.145,1.655,0.145
		c1.658,0,3.181-0.473,4.576-1.421c1.395-0.946,2.097-1.978,2.097-3.085c0-0.787-0.517-1.184-1.538-1.184
		c-1.835,0-3.704,1.123-5.623,3.364C420.364,61.971,419.897,62.592,419.463,63.249L419.463,63.249z M419.463,45.521v-1.188
		c1.742-0.837,3.232-1.257,4.476-1.257c1.133,0,1.69,0.247,1.657,0.746c-0.018,0.193-0.17,0.735-0.474,1.606l-1.158,3.45h-0.795
		c0.312-1.006,0.474-1.776,0.474-2.308c0-0.837-0.771-1.259-2.301-1.259C420.684,45.311,420.057,45.381,419.463,45.521z
		 M419.463,44.333v1.188c-1.438,0.339-2.69,1.089-3.76,2.249c-1.514,1.649-2.994,4.473-4.448,8.491l-0.22,0.642h3.957l-0.221,0.77
		h-4.016l-6.731,19.025c-0.65,0-1.073,0.067-1.293,0.221c-0.212,0.152-0.448,0.549-0.719,1.191c-1.37,3.222-2.528,5.547-3.468,6.984
		c-0.688,1.085-1.441,2.031-2.259,2.839v-1.382c0.632-0.578,1.207-1.283,1.727-2.116c1.69-2.715,4.193-9.048,7.492-18.983
		l2.309-6.933l0.271-0.847h-2.749l0.271-0.693c0.187,0,0.28,0,0.297,0l0.693-0.051c1.174,0,2.131-0.846,2.875-2.528
		c0.972-2.232,2.08-4.017,3.306-5.352c1.235-1.336,2.951-2.639,5.167-3.916C418.47,44.833,418.976,44.566,419.463,44.333
		L419.463,44.333z M419.463,61.032c-1.503,1.452-2.793,3.146-3.868,5.087c-1.514,2.724-2.267,5.319-2.267,7.797
		c0,2.198,0.964,3.297,2.901,3.297c0.983,0,2.062-0.292,3.233-0.875v-1.354c-0.381,0.1-0.757,0.148-1.13,0.148
		c-1.42,0-2.13-0.854-2.13-2.553c0-1.649,0.439-3.534,1.311-5.649c0.556-1.329,1.205-2.557,1.949-3.682V61.032L419.463,61.032z
		 M396.286,73.599l0.228-0.198l-0.228-0.31V73.599L396.286,73.599z M396.286,62.174c0.884-2.109,1.915-4.503,3.094-7.183
		c2.681-6.062,4.018-10.096,4.018-12.108c-1.227,0.609-3.264,1.462-6.123,2.545l-0.372,0.151l0.255,0.719
		c0.16-0.049,0.287-0.093,0.371-0.126c0.693-0.211,1.134-0.321,1.312-0.321c0.516,0,0.769,0.22,0.769,0.668
		c0,0.565-0.71,2.536-2.131,5.918l-1.191,2.855V62.174z M396.286,55.293v6.881c-2.599,6.197-3.929,9.933-3.992,11.2
		c-0.032,0.744,0.262,1.1,0.896,1.066c0.474-0.018,1.328-0.509,2.555-1.463l0.295-0.22l0.246,0.333v0.508
		c-2.547,2.192-4.425,3.294-5.623,3.294c-0.989,0-1.488-0.693-1.488-2.08c0-1.074,0.346-2.58,1.031-4.508
		c0.685-1.936,2.326-6.003,4.913-12.218L396.286,55.293L396.286,55.293z M396.286,86.551v1.382
		c-0.477,0.471-0.975,0.895-1.495,1.271c-1.412,1.024-2.731,1.54-3.975,1.54c-0.676,0-1.242-0.178-1.69-0.524
		c-0.457-0.347-0.685-0.787-0.685-1.311c0-0.17,0.042-0.406,0.117-0.719c0.896,0.212,1.751,0.321,2.579,0.321
		C393.143,88.511,394.858,87.855,396.286,86.551L396.286,86.551z M246.606,77.307V65.9c1.484-2.579,3.357-4.709,5.618-6.403
		c2.875-2.148,5.437-3.221,7.687-3.221c1.301,0,1.952,0.48,1.952,1.437c0,0.625-0.312,1.378-0.938,2.266
		c-0.635,0.879-1.412,1.683-2.358,2.385c-0.872,0.651-1.986,1.243-3.331,1.783c-1.345,0.551-2.385,0.821-3.111,0.821
		c-0.778,0-1.312-0.432-1.606-1.286c0.693,0.094,1.242,0.145,1.656,0.145c1.658,0,3.179-0.475,4.574-1.421s2.097-1.979,2.097-3.087
		c0-0.786-0.516-1.184-1.538-1.184c-1.835,0-3.704,1.126-5.623,3.367c-1.353,1.589-2.469,3.44-3.348,5.546
		c-0.871,2.113-1.311,3.999-1.311,5.646c0,1.699,0.71,2.554,2.13,2.554c1.548,0,3.162-0.854,4.846-2.561
		c1.674-1.709,3.061-3.916,4.168-6.604c0.228,0.465,0.347,0.871,0.347,1.234c0,1.591-1.1,3.416-3.298,5.479
		c-3.196,3.019-5.928,4.531-8.166,4.531C246.896,77.328,246.748,77.321,246.606,77.307L246.606,77.307z M246.606,50.684v-6.41
		c0.909-0.403,1.728-0.796,2.454-1.18c-0.067,1.091-0.837,3.509-2.324,7.264L246.606,50.684L246.606,50.684z M386.965,58.661
		c-0.879-0.084-1.606-0.126-2.181-0.126c-4.338,0-7.67,1.665-9.978,5.006c-0.915,1.319-1.684,2.832-2.31,4.54
		c-0.625,1.716-0.938,3.146-0.938,4.304c0,0.812,0.236,1.473,0.702,1.995c0.473,0.517,1.073,0.779,1.801,0.779
		c1.716,0,3.61-1.379,5.69-4.136c2.08-2.766,3.121-5.293,3.121-7.585c0-0.516-0.136-0.946-0.405-1.302
		c-0.28-0.355-0.602-0.533-0.982-0.533c-1.319,0-2.579,1.319-3.787,3.966c-0.086-0.329-0.128-0.616-0.128-0.87
		c0-1.023,0.635-2.098,1.911-3.222c1.269-1.125,2.478-1.684,3.619-1.684c0.752,0,1.404,0.313,1.929,0.931
		c0.532,0.617,0.795,1.378,0.795,2.266c0,2.994-1.911,6.165-5.726,9.514c-3.264,2.908-5.985,4.362-8.143,4.362
		c-0.948,0-1.726-0.338-2.342-1.015c-0.618-0.676-0.93-1.531-0.93-2.554c0-2.257,0.785-4.625,2.367-7.094
		c1.572-2.469,3.652-4.601,6.231-6.384c1.412-0.974,2.968-1.768,4.642-2.402c1.675-0.626,3.096-0.938,4.271-0.938
		c0.728,0,1.091,0.321,1.091,0.964C387.286,57.689,387.176,58.096,386.965,58.661z M246.606,44.273v6.41l-1.706,4.272l-0.718,1.785
		c0.988,0.396,1.529,1.209,1.605,2.426c-0.692-0.229-1.479-0.364-2.375-0.415l-0.169,0.44l-3.197,8.125
		c-1.487,3.787-2.231,5.936-2.231,6.468c0,0.466,0.221,0.693,0.669,0.693c0.464,0,1.226-0.32,2.282-0.962
		c0.051-0.035,0.126-0.086,0.246-0.154l0.473,0.601c-1.784,1.235-4.278,2.309-7.482,3.223l0.194-0.822
		c0.532-1.978,1.396-4.455,2.604-7.431c0.381-0.914,0.729-1.758,1.039-2.553l2.774-7.229l0.245-0.55
		c-1.784,0-3.703,0.473-5.767,1.428c-2.062,0.948-3.872,2.183-5.42,3.704c-2.907,2.891-4.361,5.86-4.361,8.92
		c0,1.403,0.516,2.106,1.538,2.106c1.007,0,2.266-0.693,3.771-2.08c1.514-1.388,2.851-3.079,4-5.057
		c1.09-1.886,1.987-3.991,2.68-6.324c0.279,0.617,0.415,1.269,0.415,1.961c0,1.37-0.592,2.968-1.768,4.778
		c-1.184,1.817-2.765,3.576-4.743,5.283c-2.96,2.512-5.259,3.763-6.907,3.763c-1.261,0-1.886-0.787-1.886-2.351
		c0-1.378,0.439-2.95,1.327-4.734c0.88-1.783,2.054-3.484,3.525-5.107c4.11-4.506,8.895-7.22,14.34-8.149l0.668-1.709l1.783-4.675
		c0.534-1.353,0.805-2.283,0.821-2.774c0.033-0.709-0.321-1.065-1.065-1.065c-0.433,0-0.904,0.111-1.437,0.322l-0.297-0.744
		l0.397-0.153C244.013,45.368,245.391,44.812,246.606,44.273L246.606,44.273z M246.606,65.9c-0.064,0.111-0.128,0.223-0.19,0.336
		c-1.513,2.721-2.266,5.316-2.266,7.794c0,2.023,0.816,3.115,2.456,3.276V65.9L246.606,65.9z M159.414,75.075v-0.431
		c0.054-0.402,0.271-0.905,0.655-1.516c0.542,1.506,1.684,2.258,3.417,2.258c1.369,0,2.848-0.752,4.421-2.266
		c1.583-1.514,4.724-7.525,5.142-8.54c0.626-1.591,0.938-2.935,0.938-4.042c0-1.403-0.609-2.106-1.834-2.106
		c-1.599,0-3.078,0.837-4.431,2.512c-1.353,1.683-2.088,3.577-2.207,5.69c-0.432-0.516-0.642-1.149-0.642-1.91
		c0-1.768,1.065-3.595,3.205-5.497c2.138-1.901,4.211-2.85,6.206-2.85c1.732,0,2.604,0.99,2.604,2.977
		c0,0.659-0.135,1.479-0.396,2.478l0.371-0.346c2.115-1.954,3.688-3.23,4.709-3.848c1.024-0.609,2.124-0.914,3.291-0.914
		c0.533,0,1.125,0.094,1.784,0.271l-0.22,0.448c-0.794,1.65-1.564,3.374-2.326,5.176l-0.228,0.524l-0.786-0.153
		c0.397-1.107,0.591-1.877,0.591-2.309c0-0.642-0.499-0.963-1.489-0.963c-2.874,0-5.393,2.309-7.55,6.916
		c-0.428,1.971-3.075,4.993-0.685,7.383c0.584,0.574,1.335,0.861,2.24,0.861c1.625,0,3.07-0.734,4.364-2.215
		c1.285-1.479,2.114-3.348,2.477-5.605c0.38,0.448,0.567,1.006,0.567,1.682c0,1.573-1.117,3.393-3.341,5.471
		c-2.089,1.953-4.076,2.927-5.978,2.927c-1.117,0-2.021-0.349-2.697-1.032c-0.677-0.684-1.016-1.598-1.016-2.757
		c0-0.465,0.067-0.989,0.195-1.581c-0.195,0.178-0.305,0.28-0.322,0.297l-1.606,1.438c-2.655,2.41-4.827,3.618-6.511,3.618
		c-0.828,0-1.521-0.219-2.08-0.659C159.752,76.077,159.476,75.615,159.414,75.075L159.414,75.075z M159.414,56.355v-0.588
		l0.013-0.007v0.271C159.427,56.133,159.423,56.241,159.414,56.355L159.414,56.355z M159.414,51.903v-1.626
		c0.073-0.115,0.162-0.226,0.267-0.334c0.338-0.346,0.727-0.524,1.177-0.524c0.76,0,1.14,0.381,1.14,1.142
		c0,0.431-0.168,0.812-0.507,1.158c-0.339,0.348-0.727,0.524-1.15,0.524C159.916,52.243,159.607,52.13,159.414,51.903z
		 M159.414,50.277v1.626c-0.16-0.188-0.24-0.456-0.24-0.802C159.174,50.804,159.254,50.532,159.414,50.277L159.414,50.277z
		 M159.414,55.768v0.588c-0.124,1.638-1.144,4.601-3.056,8.893l-1.834,4.16c-0.982,2.233-1.48,3.594-1.514,4.094
		c-0.017,0.516,0.262,0.752,0.846,0.718c0.329-0.017,0.871-0.194,1.631-0.523l0.322,0.719c-1.951,0.934-3.605,1.662-4.963,2.193
		V71.39c0.502-1.284,1.249-3.001,2.241-5.152c1.783-3.896,2.688-6.172,2.722-6.831c0.033-0.517-0.178-0.771-0.643-0.771
		c-0.22,0-0.499,0.059-0.845,0.169l-1.041,0.373c-0.067,0.017-0.22,0.075-0.474,0.177l-0.245-0.794l0.525-0.179
		c1.825-0.676,3.694-1.437,5.597-2.274L159.414,55.768L159.414,55.768z M159.414,74.645c-0.009,0.066-0.013,0.131-0.013,0.191
		c0,0.082,0.004,0.161,0.013,0.239V74.645L159.414,74.645z M150.845,48.144v-4.679c0.483-0.214,0.9-0.408,1.25-0.582
		C152.095,44.006,151.679,45.76,150.845,48.144z M132.991,65.967c0.228,0.465,0.347,0.871,0.347,1.235c0,1.59-1.1,3.415-3.298,5.479
		c-3.197,3.019-5.928,4.532-8.168,4.532c-1.936,0-2.9-1.099-2.9-3.297c0-2.478,0.752-5.073,2.266-7.797
		c1.513-2.73,3.45-4.972,5.809-6.74c2.875-2.146,5.437-3.22,7.686-3.22c1.302,0,1.954,0.48,1.954,1.438
		c0,0.625-0.313,1.378-0.938,2.266c-0.634,0.879-1.412,1.683-2.359,2.385c-0.871,0.651-1.987,1.243-3.332,1.783
		c-1.344,0.551-2.384,0.821-3.111,0.821c-0.777,0-1.311-0.431-1.606-1.287c0.693,0.095,1.243,0.145,1.657,0.145
		c1.657,0,3.179-0.473,4.575-1.421c1.394-0.945,2.097-1.978,2.097-3.085c0-0.787-0.515-1.184-1.539-1.184
		c-1.835,0-3.704,1.123-5.623,3.364c-1.353,1.59-2.47,3.441-3.349,5.547c-0.871,2.115-1.31,4-1.31,5.649
		c0,1.699,0.71,2.553,2.13,2.553c1.547,0,3.163-0.854,4.845-2.562C130.497,70.862,131.883,68.656,132.991,65.967L132.991,65.967z
		 M150.845,43.465v4.679c-0.661,1.887-1.582,4.169-2.766,6.848c-4.642,10.553-7.001,16.684-7.085,18.383
		c-0.035,0.744,0.261,1.1,0.896,1.066c0.473-0.018,1.328-0.509,2.554-1.463l0.295-0.22l0.473,0.643
		c-2.663,2.324-4.616,3.492-5.85,3.492c-0.99,0-1.489-0.693-1.489-2.08c0-1.074,0.347-2.58,1.032-4.508
		c0.685-1.936,2.325-6.003,4.912-12.218l2.36-5.649c1.42-3.382,2.13-5.353,2.13-5.918c0-0.449-0.253-0.668-0.769-0.668
		c-0.178,0-0.618,0.109-1.311,0.321c-0.084,0.034-0.211,0.077-0.373,0.126l-0.253-0.719l0.373-0.151
		C148.015,44.655,149.637,43.999,150.845,43.465L150.845,43.465z M150.845,71.39c-0.208,0.533-0.375,0.992-0.5,1.376
		c-0.422,1.319-0.676,2.748-0.751,4.305c0.384-0.133,0.801-0.286,1.25-0.462V71.39z"/>
	<path d="M346.617,27.504c5.451-4.989,10.482-8.982,15.093-11.976c8.814-5.722,17.327-8.593,25.502-8.593
		c4.268,0,7.776,1.156,10.508,3.469c2.731,2.333,4.088,5.284,4.088,8.912c0,6.46-3.311,12.422-9.949,17.844
		c-6.639,5.444-15.134,9.152-25.442,11.127c-3.867,5.723-9.529,12.82-17.026,21.274c-0.93,1.049-1.854,2.08-2.772,3.093v-3.372
		c1.076-1.249,2.153-2.532,3.23-3.849c5.124-6.239,9.052-11.764,11.784-16.549c-3.829,0.3-7.616,0.458-11.405,0.458
		c-1.05,0-2.253-0.025-3.609-0.074v-4.707c3.848,0.184,7.411,0.274,10.688,0.274l6.42-0.16c1.596-2.971,2.394-5.502,2.394-7.597
		c0-1.974-1.756-3.07-5.264-3.269l-1.218-0.06V31.66h14.895c-0.858,3.888-2.691,8.055-5.482,12.48
		c8.016-1.395,13.877-3.429,17.566-6.082c6.041-4.226,9.051-9.47,9.051-15.711c0-3.23-1.177-5.841-3.529-7.835
		c-2.352-1.974-5.482-2.972-9.37-2.972c-10.47,0-22.517,6.273-36.149,18.829V27.504z M276.444,11.222
		c-74.926,5.292-105.483,94.079-43.962,83.496l0.182,1.254c-68.943,20.425-39.82-76.602,40.948-87.437
		c3.251-0.482,6.65-0.722,10.198-0.722c12.203,0,22.292,3.05,30.287,9.171c8.016,6.121,13.538,14.996,16.569,26.638
		c5.666-6.198,10.982-11.571,15.95-16.118v2.865c-4.178,3.847-8.504,8.285-12.979,13.312c4.635,0.397,8.962,0.691,12.979,0.882
		v4.707c-3.512-0.127-8.051-0.417-13.617-0.863l-1.396-0.12c1.934,8.034,2.911,18.562,2.911,31.603v2.053
		c4.03-3.747,8.062-7.967,12.103-12.66v3.372c-6.48,7.154-12.654,13.423-18.522,18.82l0.06-5.563c0-11.066-0.758-21.893-2.273-32.48
		l-0.179-1.155l-1.936,2.332c-0.936,1.077-2.67,3.131-5.202,6.121c-4.128,4.885-7.02,8.354-8.694,10.468l-14.494,18.344
		l-1.098,1.276c0-11.365-0.638-24.445-1.874-39.24c-0.498-6.241-1.017-10.149-1.516-11.764c-0.518-1.615-1.456-2.433-2.87-2.433
		c-0.898,0-2.313,0.518-4.268,1.575l-1.037-1.934c0.539-0.359,0.857-0.539,0.917-0.577l6.142-3.451
		c1.256-0.697,3.15-1.875,5.723-3.508l1.356-0.799c2.292,12.224,3.429,29.131,3.429,50.746c1.795-2.054,5.184-6.223,10.169-12.443
		c3.43-4.366,8.155-9.987,14.195-16.886l0.519-0.639l-0.22-1.176c-10.486,0-15.99,4.366-16.527,13.1
		c-1.018-0.857-1.537-1.934-1.537-3.23c0-2.95,1.815-5.98,5.444-9.113c3.609-3.109,7.437-4.924,11.443-5.423
		c-3.309-10.167-8.871-18.123-16.667-23.866c-7.817-5.743-16.988-8.614-27.555-8.614C278.494,11.142,277.461,11.169,276.444,11.222
		L276.444,11.222z"/>
	<path d="M108.713,43.167l-23.426-0.145c3.322,1.509,6.017,3.707,8.087,6.61c2.07,2.888,3.096,5.92,3.096,9.082
		c0,4.925-2.837,11.389-6.511,17.356c-7.451-8.821-18.339-20.662-29.472-29.57v-4.799c10.637,7.022,20.407,16.351,28.387,24.537
		l1.443,1.461c1.573-2.663,3.112-5.472,3.112-8.424c0-4.571-1.99-8.358-5.969-11.359c-3.978-3.017-9.961-4.684-16.46-5.038
		c0.786-1.348,1.396-2.856,1.845-4.509l37.182-0.144l3.947-12.113c7.343-22.538,29.562-24.701,42.101-15.646l-5.309,11.516
		l-1.89-0.391c0.561-2.005,0.752-3.425,0.85-4.236c0.741-6.12-5.528-10.002-10.879-9.846c-6.881,0.201-13.539,6.136-15.488,12.635
		c-0.93,1.926-2.198,5.552-3.802,10.878l-1.782,6.081l-0.336,1.123h17.954l-3.386,11.328h-1.733
		c0.161-0.498,0.272-0.883,0.337-1.124c0.336-1.123,0.513-2.069,0.513-2.824c0-1.059-0.449-1.733-1.364-2.021
		c-0.915-0.272-3.097-0.417-6.545-0.417h-7.235l-0.659,2.021c-3.136,10.032-8.984,25.556-14.396,33.569
		c-8.737,12.938-24.346,20.123-40.439,21.308v-3.059c15.01,0.084,28.515-8.036,37.042-24.369
		C101.06,65.876,106.627,52.363,108.713,43.167z M60.488,46.5c-7.555-6.044-15.222-10.739-22.004-12.222
		c-31.783-6.95-33.04,32.515-12.551,48.936c11.4,9.136,23.394,13.731,34.555,13.793v3.059
		c-24.231,1.785-49.562-10.039-54.196-36.371C3.123,45.691,17.229,27.67,37.571,31.603c7.849,1.518,15.588,5.26,22.917,10.098V46.5z
		"/>
</g>
</svg>
